:FULLY-SPECIFIED
:FORCE-ALL-JOINTS-BE-3DOF
:DEGREES
238
root 5.60289 15.7466 -25.9357 10.0478 24.3487 -7.62168
lfemur -42.4389 37.0087 -4.58323
ltibia 57.3115 0 0
lfoot -11.8943 5.29631 0
ltoes -8.16782 0 0
rfemur -19.5796 -12.8086 5.15987
rtibia 42.2535 0 0
rfoot -17.9271 -3.05514 0
rtoes 39.9345 0 0
lowerback 1.67707 -2.00875 1.83625
upperback -0.710871 -2.60168 3.6026
thorax -1.57217 -1.29966 2.74472
lowerneck -11.7653 -2.72189 -0.626385
upperneck 1.09574 -3.52431 -0.0755519
head 2.37173 -1.76401 -0.119285
lclavicle 4.02635e-15 -1.59158e-14 0
lhumerus -52.6572 -36.2573 121.484
lradius 61.8072 0 0
lwrist 18.074 0 0
lhand 7.51635 12.869 0
lfingers 7.12502 0 0
lthumb 32.8886 40.8395 0
rclavicle 4.02635e-15 -1.59158e-14 0
rhumerus -39.1663 1.13902 -74.7898
rradius 95.1002 0 0
rwrist -10.0107 0 0
rhand 43.5072 -16.1996 0
rfingers 7.12502 0 0
rthumb 64.921 -768.428 0
239
root 5.68446 15.7821 -25.9355 9.78373 25.6524 -7.73541
lfemur -42.646 36.7019 -5.34057
ltibia 56.976 0 0
lfoot -12.134 4.84954 0
ltoes -5.08142 0 0
rfemur -18.604 -11.4728 4.78246
rtibia 42.9368 0 0
rfoot -15.4003 -4.28938 0
rtoes 36.8446 0 0
lowerback 1.60977 -2.00528 1.71215
upperback -0.760638 -2.59597 3.75144
thorax -1.57082 -1.29518 2.96235
lowerneck -11.7408 -3.01134 -0.730996
upperneck 1.19581 -3.89013 -0.141577
head 2.39525 -1.94784 -0.145062
lclavicle 1.13631e-15 -1.51565e-14 0
lhumerus -52.6224 -35.9792 121.62
lradius 61.8906 0 0
lwrist 18.1119 0 0
lhand 6.9633 12.611 0
lfingers 7.12502 0 0
lthumb 32.3672 40.7294 0
rclavicle 1.13631e-15 -1.51565e-14 0
rhumerus -39.4457 0.787431 -74.2329
rradius 91.8108 0 0
rwrist -6.13375 0 0
rhand 40.792 -14.9109 0
rfingers 7.12502 0 0
rthumb 62.4428 -768.86 0
240
root 5.76466 15.8156 -25.9336 9.50583 26.8912 -7.79894
lfemur -42.6675 36.2222 -6.08985
ltibia 56.4367 0 0
lfoot -12.4692 4.32605 0
ltoes -1.69329 0 0
rfemur -17.662 -10.1384 4.34963
rtibia 43.6779 0 0
rfoot -12.852 -5.46615 0
rtoes 33.7627 0 0
lowerback 1.52862 -2.00086 1.57458
upperback -0.811134 -2.58925 3.86135
thorax -1.56354 -1.29026 3.14675
lowerneck -11.7112 -3.29388 -0.809703
upperneck 1.30668 -4.25083 -0.199933
head 2.4216 -2.12839 -0.172591
lclavicle -1.83036e-15 -1.42567e-14 0
lhumerus -52.6136 -35.732 121.739
lradius 61.9491 0 0
lwrist 18.1817 0 0
lhand 6.51553 12.4114 0
lfingers 7.12502 0 0
lthumb 31.9419 40.6257 0
rclavicle -1.83036e-15 -1.42567e-14 0
rhumerus -39.6131 0.301743 -73.4342
rradius 88.3467 0 0
rwrist -2.21783 0 0
rhand 37.629 -13.7783 0
rfingers 7.12502 0 0
rthumb 59.5469 -768.74 0
241
root 5.84453 15.8474 -25.9299 9.22488 28.0892 -7.80504
lfemur -42.5231 35.5851 -6.83597
ltibia 55.7215 0 0
lfoot -12.8795 3.72772 0
ltoes 1.96019 0 0
rfemur -16.7728 -8.81166 3.87792
rtibia 44.4824 0 0
rfoot -10.292 -6.58433 0
rtoes 30.6913 0 0
lowerback 1.43893 -1.99698 1.42438
upperback -0.860641 -2.5836 3.93468
thorax -1.55149 -1.28591 3.30025
lowerneck -11.6742 -3.57278 -0.868046
upperneck 1.42562 -4.61021 -0.248522
head 2.44991 -2.30763 -0.200318
lclavicle -4.82613e-15 -1.32308e-14 0
lhumerus -52.6229 -35.5125 121.835
lradius 61.9848 0 0
lwrist 18.2789 0 0
lhand 6.16616 12.2637 0
lfingers 7.12502 0 0
lthumb 31.6067 40.5273 0
rclavicle -4.82613e-15 -1.32308e-14 0
rhumerus -39.6926 -0.292145 -72.4485
rradius 84.7365 0 0
rwrist 1.71833 0 0
rhand 34.0773 -12.7762 0
rfingers 7.12502 0 0
rthumb 56.2882 -768.145 0
242
root 5.92509 15.8777 -25.9243 8.95158 29.2703 -7.74648
lfemur -42.2319 34.806 -7.58381
ltibia 54.8585 0 0
lfoot -13.3451 3.05645 0
ltoes 5.84266 0 0
rfemur -15.9561 -7.49853 3.38387
rtibia 45.356 0 0
rfoot -7.73002 -7.64276 0
rtoes 27.6331 0 0
lowerback 1.34598 -1.99512 1.26242
upperback -0.907442 -2.58108 3.97379
thorax -1.5358 -1.28315 3.42517
lowerneck -11.6274 -3.85129 -0.91157
upperneck 1.54991 -4.97209 -0.285246
head 2.4793 -2.48755 -0.226687
lclavicle -7.80345e-15 -1.20936e-14 0
lhumerus -52.6423 -35.3174 121.903
lradius 61.9998 0 0
lwrist 18.3994 0 0
lhand 5.90832 12.1616 0
lfingers 7.12502 0 0
lthumb 31.3555 40.4329 0
rclavicle -7.80345e-15 -1.20936e-14 0
rhumerus -39.7084 -0.968335 -71.3305
rradius 81.0088 0 0
rwrist 5.65604 0 0
rhand 30.1962 -11.879 0
rfingers 7.12502 0 0
rthumb 52.7219 -767.15 0
243
root 6.00738 15.9068 -25.9167 8.69668 30.4588 -7.61604
lfemur -41.8136 33.9002 -8.33826
ltibia 53.8756 0 0
lfoot -13.8457 2.31412 0
ltoes 9.91775 0 0
rfemur -15.2311 -6.20514 2.884
rtibia 46.3043 0 0
rfoot -5.17595 -8.64032 0
rtoes 24.5906 0 0
lowerback 1.25507 -1.99675 1.08953
upperback -0.949816 -2.58376 3.98103
thorax -1.51762 -1.28299 3.52383
lowerneck -11.5683 -4.13265 -0.945816
upperneck 1.67683 -5.34027 -0.308006
head 2.50892 -2.6701 -0.250145
lclavicle -1.07148e-14 -1.08596e-14 0
lhumerus -52.6637 -35.1434 121.936
lradius 61.9962 0 0
lwrist 18.5386 0 0
lhand 5.73514 12.0985 0
lfingers 7.12502 0 0
lthumb 31.1824 40.3413 0
rclavicle -1.07148e-14 -1.08596e-14 0
rhumerus -39.6848 -1.70093 -70.1349
rradius 77.1923 0 0
rwrist 9.57658 0 0
rhand 26.0448 -11.0611 0
rfingers 7.12502 0 0
rthumb 48.9029 -765.83 0
244
root 6.09242 15.9349 -25.9068 8.47089 31.6785 -7.40649
lfemur -41.2874 32.8833 -9.10422
ltibia 52.8008 0 0
lfoot -14.3612 1.50261 0
ltoes 14.1491 0 0
rfemur -14.6173 -4.93755 2.39484
rtibia 47.333 0 0
rfoot -2.6396 -9.57586 0
rtoes 21.5664 0 0
lowerback 1.17148 -2.00337 0.906555
upperback -0.986047 -2.59372 3.95876
thorax -1.49809 -1.28647 3.59856
lowerneck -11.4946 -4.42013 -0.976328
upperneck 1.80365 -5.71858 -0.314705
head 2.53788 -2.85726 -0.269138
lclavicle -1.35127e-14 -9.54362e-15 0
lhumerus -52.6791 -34.9873 121.929
lradius 61.976 0 0
lwrist 18.6922 0 0
lhand 5.63975 12.068 0
lfingers 7.12502 0 0
lthumb 31.0812 40.2513 0
rclavicle -1.35127e-14 -9.54362e-15 0
rhumerus -39.6458 -2.46402 -68.9162
rradius 73.3156 0 0
rwrist 13.4613 0 0
rhand 21.6822 -10.2969 0
rfingers 7.12502 0 0
rthumb 44.8863 -764.26 0
245
root 6.18124 15.9624 -25.8946 8.28493 32.9535 -7.11061
lfemur -40.6728 31.7706 -9.88657
ltibia 51.662 0 0
lfoot -14.8716 0.623825 0
ltoes 18.5003 0 0
rfemur -14.1342 -3.70186 1.93292
rtibia 48.4477 0 0
rfoot -0.130782 -10.4483 0
rtoes 18.5632 0 0
lowerback 1.10052 -2.01645 0.714352
upperback -1.01441 -2.61301 3.90933
thorax -1.47837 -1.29459 3.65167
lowerneck -11.404 -4.71697 -1.00865
upperneck 1.92766 -6.11083 -0.303244
head 2.56532 -3.05099 -0.282111
lclavicle -1.61495e-14 -8.16018e-15 0
lhumerus -52.6804 -34.8458 121.877
lradius 61.9413 0 0
lwrist 18.8559 0 0
lhand 5.61527 12.0636 0
lfingers 7.12502 0 0
lthumb 31.046 40.1617 0
rclavicle -1.61495e-14 -8.16018e-15 0
rhumerus -39.6158 -3.23172 -67.7294
rradius 69.4073 0 0
rwrist 17.2913 0 0
rhand 17.1676 -9.5607 0
rfingers 7.12502 0 0
rthumb 40.7271 -762.517 0
246
root 6.27487 15.9893 -25.88 8.14953 34.308 -6.72118
lfemur -39.9893 30.5775 -10.6902
ltibia 50.4872 0 0
lfoot -15.3567 -0.320362 0
ltoes 22.935 0 0
rfemur -13.8011 -2.50414 1.51478
rtibia 49.6541 0 0
rfoot 2.34069 -11.2564 0
rtoes 15.5836 0 0
lowerback 1.04746 -2.03749 0.513765
upperback -1.0332 -2.64371 3.83509
thorax -1.45959 -1.30837 3.6855
lowerneck -11.2939 -5.02644 -1.04832
upperneck 2.04613 -6.52082 -0.271524
head 2.59037 -3.25327 -0.28751
lclavicle -1.85777e-14 -6.72394e-15 0
lhumerus -52.6596 -34.7157 121.774
lradius 61.8942 0 0
lwrist 19.0254 0 0
lhand 5.65482 12.0788 0
lfingers 7.12502 0 0
lthumb 31.0707 40.0713 0
rclavicle -1.85777e-14 -6.72394e-15 0
rhumerus -39.6189 -3.97813 -66.6289
rradius 65.4963 0 0
rwrist 21.0482 0 0
rhand 12.5602 -8.82699 0
rfingers 7.12502 0 0
rthumb 36.4804 -760.677 0
